# xmcd CD database file
#
# Track frame offsets:
#	150
#	15237
#	39730
#	61372
#	75920
#	93967
#	109852
#	128975
#	145502
#	158480
#
# Disc length: 2455 seconds
#
# Revision: 4
# Processed by: cddbd v1.5.2PL0 Copyright (c) Steve Scherf et al.
# Submitted via: CDex 1.51
#
DISCID=6c09950a
DTITLE=Otis Rush - Right Place, Wrong Time
DYEAR=1985
DGENRE=Blues
TTITLE0=Tore Up
TTITLE1=Right Place, Wrong Time
TTITLE2=Easy Go
TTITLE3=Three Times A Fool
TTITLE4=Rainy Night In Georgia
TTITLE5=Natural Ball
TTITLE6=I Wonder Why
TTITLE7=Your Turn To Cry
TTITLE8=Lonely Man
TTITLE9=Take A Look Behind
EXTD=HCD 8007\n\nSubmitted 6/25/97\n[Jmccoy@efn.org] YEAR: 1985
EXTT0=
EXTT1=
EXTT2=
EXTT3=
EXTT4=
EXTT5=
EXTT6=
EXTT7=
EXTT8=
EXTT9=
PLAYORDER=
